{
  "accessors": [
    {
      "bufferView": 2,
      "componentType": 5126,
      "count": 9596,
      "max": [
        10.205381393432617,
        6.527184963226318,
        155.55592346191406
      ],
      "min": [
        -10.242600440979004,
        -14.954911231994629,
        122.35346221923828
      ],
      "type": "VEC3"
    },
    {
      "bufferView": 2,
      "byteOffset": 115152,
      "componentType": 5126,
      "count": 9596,
      "max": [
        0.9999720454216003,
        0.9999822974205017,
        0.9999462962150574
      ],
      "min": [
        -0.9999701380729675,
        -0.9999845623970032,
        -0.9998964071273804
      ],
      "type": "VEC3"
    },
    {
      "bufferView": 1,
      "componentType": 5126,
      "count": 9596,
      "max": [
        0.986299991607666,
        0.9705600142478943
      ],
      "min": [
        0.023019999265670776,
        0.026839999482035637
      ],
      "type": "VEC2"
    },
    {
      "bufferView": 0,
      "componentType": 5125,
      "count": 51462,
      "type": "SCALAR"
    },
    {
      "bufferView": 2,
      "byteOffset": 230304,
      "componentType": 5126,
      "count": 9734,
      "max": [
        17.01896858215332,
        16.199312210083008,
        156.4860076904297
      ],
      "min": [
        -13.26932430267334,
        -11.7138671875,
        117.73981475830078
      ],
      "type": "VEC3"
    },
    {
      "bufferView": 2,
      "byteOffset": 347112,
      "componentType": 5126,
      "count": 9734,
      "max": [
        0.9999763369560242,
        0.999901533126831,
        0.9999352097511292
      ],
      "min": [
        -0.9999763369560242,
        -0.9972673654556274,
        -0.9980146288871765
      ],
      "type": "VEC3"
    },
    {
      "bufferView": 3,
      "componentType": 5126,
      "count": 9734,
      "max": [
        0.9998597502708435,
        0.9998590350151062,
        0.8965840339660645,
        1.0
      ],
      "min": [
        -0.9999871850013733,
        -0.9999825358390808,
        -0.790768027305603,
        -1.0
      ],
      "type": "VEC4"
    },
    {
      "bufferView": 1,
      "byteOffset": 76768,
      "componentType": 5126,
      "count": 9734,
      "max": [
        0.9870280027389526,
        1.0025639533996582
      ],
      "min": [
        0.3233180046081543,
        0.04251199960708618
      ],
      "type": "VEC2"
    },
    {
      "bufferView": 0,
      "byteOffset": 205848,
      "componentType": 5125,
      "count": 38238,
      "type": "SCALAR"
    },
    {
      "bufferView": 2,
      "byteOffset": 463920,
      "componentType": 5126,
      "count": 9939,
      "max": [
        14.698076248168945,
        14.236085891723633,
        156.4860076904297
      ],
      "min": [
        -12.658227920532227,
        -13.225326538085938,
        115.41755676269531
      ],
      "type": "VEC3"
    },
    {
      "bufferView": 2,
      "byteOffset": 583188,
      "componentType": 5126,
      "count": 9939,
      "max": [
        0.9999614953994751,
        0.9998912215232849,
        0.9996836185455322
      ],
      "min": [
        -0.9999763369560242,
        -0.999871551990509,
        -0.9852830171585083
      ],
      "type": "VEC3"
    },
    {
      "bufferView": 3,
      "byteOffset": 155744,
      "componentType": 5126,
      "count": 9939,
      "max": [
        0.9995872974395752,
        1.0,
        0.9651916027069092,
        1.0
      ],
      "min": [
        -0.9999735355377197,
        -0.9999426603317261,
        -0.9051085114479065,
        -1.0
      ],
      "type": "VEC4"
    },
    {
      "bufferView": 1,
      "byteOffset": 154640,
      "componentType": 5126,
      "count": 9939,
      "max": [
        0.9931719899177551,
        1.0058519840240479
      ],
      "min": [
        0.018667999655008316,
        0.024264000356197357
      ],
      "type": "VEC2"
    },
    {
      "bufferView": 0,
      "byteOffset": 358800,
      "componentType": 5125,
      "count": 38088,
      "type": "SCALAR"
    },
    {
      "bufferView": 2,
      "byteOffset": 702456,
      "componentType": 5126,
      "count": 1071,
      "max": [
        13.165184020996094,
        11.480962753295898,
        152.9322509765625
      ],
      "min": [
        -7.4738688468933105,
        -8.110841751098633,
        114.25685119628906
      ],
      "type": "VEC3"
    },
    {
      "bufferView": 2,
      "byteOffset": 715308,
      "componentType": 5126,
      "count": 1071,
      "max": [
        0.9997761249542236,
        0.9995182156562805,
        0.8806047439575195
      ],
      "min": [
        -0.983867347240448,
        -0.628312349319458,
        -0.34836387634277344
      ],
      "type": "VEC3"
    },
    {
      "bufferView": 3,
      "byteOffset": 314768,
      "componentType": 5126,
      "count": 1071,
      "max": [
        0.4997730255126953,
        0.9998075366020203,
        0.573157548904419,
        1.0
      ],
      "min": [
        -0.9999809265136719,
        -0.9961620569229126,
        -0.6910192966461182,
        1.0
      ],
      "type": "VEC4"
    },
    {
      "bufferView": 1,
      "byteOffset": 234152,
      "componentType": 5126,
      "count": 1071,
      "max": [
        0.9730100035667419,
        0.9840139746665955
      ],
      "min": [
        0.4420210123062134,
        0.03599400073289871
      ],
      "type": "VEC2"
    },
    {
      "bufferView": 0,
      "byteOffset": 511152,
      "componentType": 5125,
      "count": 4080,
      "type": "SCALAR"
    }
  ],
  "asset": {
    "extras": {
      "author": "CarlosTorresVFX (https://sketchfab.com/carlostorresvfx)",
      "license": "CC-BY-4.0 (http://creativecommons.org/licenses/by/4.0/)",
      "source": "https://sketchfab.com/3d-models/long-reddish-hair-for-game-0664c544ecd149d48067e3c54a90a638",
      "title": "Long reddish hair for game"
    },
    "generator": "Sketchfab-15.8.0",
    "version": "2.0"
  },
  "bufferViews": [
    {
      "buffer": 0,
      "byteLength": 527472,
      "name": "floatBufferViews",
      "target": 34963
    },
    {
      "buffer": 0,
      "byteLength": 242720,
      "byteOffset": 527472,
      "byteStride": 8,
      "name": "floatBufferViews",
      "target": 34962
    },
    {
      "buffer": 0,
      "byteLength": 728160,
      "byteOffset": 770192,
      "byteStride": 12,
      "name": "floatBufferViews",
      "target": 34962
    },
    {
      "buffer": 0,
      "byteLength": 331904,
      "byteOffset": 1498352,
      "byteStride": 16,
      "name": "floatBufferViews",
      "target": 34962
    }
  ],
  "buffers": [
    {
      "byteLength": 1830256,
      "uri": "scene.bin"
    }
  ],
  "extensionsUsed": [
    "KHR_materials_specular"
  ],
  "images": [
    {
      "uri": "textures/aiStandardSurface1SG_baseColor.png"
    },
    {
      "uri": "textures/aiStandardSurface1SG_metallicRoughness.png"
    },
    {
      "uri": "textures/aiStandardSurface1SG_normal.png"
    }
  ],
  "materials": [
    {
      "doubleSided": true,
      "extensions": {
        "KHR_materials_specular": {
          "specularColorFactor": [
            1.0,
            1.0,
            1.0
          ],
          "specularFactor": 0.0
        }
      },
      "name": "Wig_GEOaiStandardSurface7SG",
      "pbrMetallicRoughness": {
        "baseColorFactor": [
          0.0,
          0.0,
          0.0,
          1.0
        ],
        "metallicFactor": 0.0,
        "roughnessFactor": 0.0
      }
    },
    {
      "alphaMode": "BLEND",
      "doubleSided": true,
      "extensions": {
        "KHR_materials_specular": {
          "specularColorFactor": [
            1.0,
            1.0,
            1.0
          ],
          "specularFactor": 0.8529342915686239
        }
      },
      "name": "aiStandardSurface1SG",
      "normalTexture": {
        "index": 2,
        "scale": 0.35
      },
      "occlusionTexture": {
        "index": 1
      },
      "pbrMetallicRoughness": {
        "baseColorTexture": {
          "index": 0
        },
        "metallicFactor": 0.0,
        "metallicRoughnessTexture": {
          "index": 1
        }
      }
    }
  ],
  "meshes": [
    {
      "name": "Object_0",
      "primitives": [
        {
          "attributes": {
            "NORMAL": 1,
            "POSITION": 0,
            "TEXCOORD_0": 2
          },
          "indices": 3,
          "material": 0,
          "mode": 4
        }
      ]
    },
    {
      "name": "Object_1",
      "primitives": [
        {
          "attributes": {
            "NORMAL": 5,
            "POSITION": 4,
            "TANGENT": 6,
            "TEXCOORD_0": 7
          },
          "indices": 8,
          "material": 1,
          "mode": 4
        }
      ]
    },
    {
      "name": "Object_2",
      "primitives": [
        {
          "attributes": {
            "NORMAL": 10,
            "POSITION": 9,
            "TANGENT": 11,
            "TEXCOORD_0": 12
          },
          "indices": 13,
          "material": 1,
          "mode": 4
        }
      ]
    },
    {
      "name": "Object_3",
      "primitives": [
        {
          "attributes": {
            "NORMAL": 15,
            "POSITION": 14,
            "TANGENT": 16,
            "TEXCOORD_0": 17
          },
          "indices": 18,
          "material": 1,
          "mode": 4
        }
      ]
    }
  ],
  "nodes": [
    {
      "children": [
        1
      ],
      "matrix": [
        1.0,
        0.0,
        0.0,
        0.0,
        0.0,
        2.220446049250313e-16,
        -1.0,
        0.0,
        0.0,
        1.0,
        2.220446049250313e-16,
        0.0,
        0.0,
        0.0,
        0.0,
        1.0
      ],
      "name": "Sketchfab_model"
    },
    {
      "children": [
        2,
        3,
        4,
        5
      ],
      "name": "hairLowPolyForSketchFab2.obj.cleaner.materialmerger.gles"
    },
    {
      "mesh": 0,
      "name": "Object_2"
    },
    {
      "mesh": 1,
      "name": "Object_3"
    },
    {
      "mesh": 2,
      "name": "Object_4"
    },
    {
      "mesh": 3,
      "name": "Object_5"
    }
  ],
  "samplers": [
    {
      "magFilter": 9729,
      "minFilter": 9987,
      "wrapS": 10497,
      "wrapT": 10497
    }
  ],
  "scene": 0,
  "scenes": [
    {
      "name": "Sketchfab_Scene",
      "nodes": [
        0
      ]
    }
  ],
  "textures": [
    {
      "sampler": 0,
      "source": 0
    },
    {
      "sampler": 0,
      "source": 1
    },
    {
      "sampler": 0,
      "source": 2
    }
  ]
}
