{
  "accessors": [
    {
      "bufferView": 2,
      "componentType": 5126,
      "count": 628,
      "max": [
        0.4955889880657196,
        0.11562400311231613,
        0.9962599873542786
      ],
      "min": [
        -0.49668699502944946,
        -0.026311999186873436,
        0.8106139898300171
      ],
      "type": "VEC3"
    },
    {
      "bufferView": 2,
      "byteOffset": 7536,
      "componentType": 5126,
      "count": 628,
      "max": [
        0.9992733001708984,
        0.9997579455375671,
        0.6072195768356323
      ],
      "min": [
        -0.9999366998672485,
        -0.9839341640472412,
        -0.9984611868858337
      ],
      "type": "VEC3"
    },
    {
      "bufferView": 1,
      "componentType": 5126,
      "count": 628,
      "max": [
        0.9756799936294556,
        0.9943060278892517
      ],
      "min": [
        0.007075000088661909,
        0.02416599914431572
      ],
      "type": "VEC2"
    },
    {
      "bufferView": 0,
      "componentType": 5125,
      "count": 1176,
      "type": "SCALAR"
    },
    {
      "bufferView": 2,
      "byteOffset": 15072,
      "componentType": 5126,
      "count": 198,
      "max": [
        0.2864780128002167,
        0.13199900090694427,
        0.12017499655485153
      ],
      "min": [
        -0.28349000215530396,
        -0.15106900036334991,
        0.0
      ],
      "type": "VEC3"
    },
    {
      "bufferView": 2,
      "byteOffset": 17448,
      "componentType": 5126,
      "count": 198,
      "max": [
        0.9999325275421143,
        0.9976160526275635,
        0.9643372297286987
      ],
      "min": [
        -0.9991859197616577,
        -0.9925534129142761,
        -1.0
      ],
      "type": "VEC3"
    },
    {
      "bufferView": 1,
      "byteOffset": 5024,
      "componentType": 5126,
      "count": 198,
      "max": [
        0.964663028717041,
        0.958961009979248
      ],
      "min": [
        0.04653400182723999,
        0.02023399993777275
      ],
      "type": "VEC2"
    },
    {
      "bufferView": 0,
      "byteOffset": 4704,
      "componentType": 5125,
      "count": 354,
      "type": "SCALAR"
    },
    {
      "bufferView": 2,
      "byteOffset": 19824,
      "componentType": 5126,
      "count": 904,
      "max": [
        0.09029299765825272,
        0.09241099655628204,
        1.7727160453796387
      ],
      "min": [
        -0.09157100319862366,
        -0.11075200140476227,
        1.4438140392303467
      ],
      "type": "VEC3"
    },
    {
      "bufferView": 2,
      "byteOffset": 30672,
      "componentType": 5126,
      "count": 904,
      "max": [
        0.9998385310173035,
        0.9979313015937805,
        0.9958596229553223
      ],
      "min": [
        -0.9997389912605286,
        -0.9996989369392395,
        -0.9995003342628479
      ],
      "type": "VEC3"
    },
    {
      "bufferView": 1,
      "byteOffset": 6608,
      "componentType": 5126,
      "count": 904,
      "max": [
        0.9886249899864197,
        0.994983971118927
      ],
      "min": [
        0.0076779997907578945,
        0.019607000052928925
      ],
      "type": "VEC2"
    },
    {
      "bufferView": 0,
      "byteOffset": 6120,
      "componentType": 5125,
      "count": 1728,
      "type": "SCALAR"
    },
    {
      "bufferView": 2,
      "byteOffset": 41520,
      "componentType": 5126,
      "count": 566,
      "max": [
        0.2572309970855713,
        0.19865800440311432,
        1.5731209516525269
      ],
      "min": [
        -0.2569969892501831,
        -0.18034499883651733,
        0.652167022228241
      ],
      "type": "VEC3"
    },
    {
      "bufferView": 2,
      "byteOffset": 48312,
      "componentType": 5126,
      "count": 566,
      "max": [
        0.9843431711196899,
        0.9887070655822754,
        0.9994907975196838
      ],
      "min": [
        -0.9993609189987183,
        -0.9998961687088013,
        -0.5932909846305847
      ],
      "type": "VEC3"
    },
    {
      "bufferView": 1,
      "byteOffset": 13840,
      "componentType": 5126,
      "count": 566,
      "max": [
        0.9925209879875183,
        0.9930949807167053
      ],
      "min": [
        0.018908999860286713,
        0.033431001007556915
      ],
      "type": "VEC2"
    },
    {
      "bufferView": 0,
      "byteOffset": 13032,
      "componentType": 5125,
      "count": 1026,
      "type": "SCALAR"
    },
    {
      "bufferView": 2,
      "byteOffset": 55104,
      "componentType": 5126,
      "count": 302,
      "max": [
        0.46550700068473816,
        0.14344200491905212,
        1.4514720439910889
      ],
      "min": [
        -0.4675000011920929,
        -0.04631999880075455,
        0.9327920079231262
      ],
      "type": "VEC3"
    },
    {
      "bufferView": 2,
      "byteOffset": 58728,
      "componentType": 5126,
      "count": 302,
      "max": [
        0.9696141481399536,
        0.9999830722808838,
        0.753693699836731
      ],
      "min": [
        -0.9686154723167419,
        -0.9939478635787964,
        -0.8829841017723083
      ],
      "type": "VEC3"
    },
    {
      "bufferView": 1,
      "byteOffset": 18368,
      "componentType": 5126,
      "count": 302,
      "max": [
        0.82191401720047,
        0.9650580286979675
      ],
      "min": [
        0.01810299977660179,
        0.023691000416874886
      ],
      "type": "VEC2"
    },
    {
      "bufferView": 0,
      "byteOffset": 17136,
      "componentType": 5125,
      "count": 582,
      "type": "SCALAR"
    },
    {
      "bufferView": 2,
      "byteOffset": 62352,
      "componentType": 5126,
      "count": 527,
      "max": [
        0.29017001390457153,
        0.17383399605751038,
        1.5032509565353394
      ],
      "min": [
        -0.45902401208877563,
        -0.15230700373649597,
        0.04755600169301033
      ],
      "type": "VEC3"
    },
    {
      "bufferView": 2,
      "byteOffset": 68676,
      "componentType": 5126,
      "count": 527,
      "max": [
        0.9993910789489746,
        0.9992766380310059,
        0.9449838995933533
      ],
      "min": [
        -0.9990066885948181,
        -0.9904566407203674,
        -0.9993423223495483
      ],
      "type": "VEC3"
    },
    {
      "bufferView": 1,
      "byteOffset": 20784,
      "componentType": 5126,
      "count": 527,
      "max": [
        0.9766960144042969,
        0.9864689707756042
      ],
      "min": [
        0.00989999994635582,
        0.011921999976038933
      ],
      "type": "VEC2"
    },
    {
      "bufferView": 0,
      "byteOffset": 19464,
      "componentType": 5125,
      "count": 1020,
      "type": "SCALAR"
    },
    {
      "bufferView": 2,
      "byteOffset": 75000,
      "componentType": 5126,
      "count": 170,
      "max": [
        0.09151600301265717,
        0.11730299890041351,
        1.7961560487747192
      ],
      "min": [
        -0.09778500348329544,
        -0.09416300058364868,
        1.581725001335144
      ],
      "type": "VEC3"
    },
    {
      "bufferView": 2,
      "byteOffset": 77040,
      "componentType": 5126,
      "count": 170,
      "max": [
        0.9906908869743347,
        0.9911630749702454,
        0.9793730974197388
      ],
      "min": [
        -0.9941310286521912,
        -0.9311570525169373,
        -0.5724771022796631
      ],
      "type": "VEC3"
    },
    {
      "bufferView": 1,
      "byteOffset": 25000,
      "componentType": 5126,
      "count": 170,
      "max": [
        0.9012920260429382,
        0.975013017654419
      ],
      "min": [
        0.028193999081850052,
        0.1012360006570816
      ],
      "type": "VEC2"
    },
    {
      "bufferView": 0,
      "byteOffset": 23544,
      "componentType": 5125,
      "count": 324,
      "type": "SCALAR"
    },
    {
      "bufferView": 2,
      "byteOffset": 79080,
      "componentType": 5126,
      "count": 24,
      "max": [
        0.0953579992055893,
        -0.003217000048607588,
        1.7677580118179321
      ],
      "min": [
        -0.08830799907445908,
        -0.10879699885845184,
        1.6809929609298706
      ],
      "type": "VEC3"
    },
    {
      "bufferView": 2,
      "byteOffset": 79368,
      "componentType": 5126,
      "count": 24,
      "max": [
        0.970669686794281,
        -0.17589449882507324,
        0.48930245637893677
      ],
      "min": [
        -0.8697349429130554,
        -0.9218292236328125,
        -0.1227976456284523
      ],
      "type": "VEC3"
    },
    {
      "bufferView": 1,
      "byteOffset": 26360,
      "componentType": 5126,
      "count": 24,
      "max": [
        0.9708830118179321,
        0.926256000995636
      ],
      "min": [
        0.07353100180625916,
        0.03154199942946434
      ],
      "type": "VEC2"
    },
    {
      "bufferView": 0,
      "byteOffset": 24840,
      "componentType": 5125,
      "count": 42,
      "type": "SCALAR"
    }
  ],
  "asset": {
    "extras": {
      "author": "Nappa Saiyan (https://sketchfab.com/NappaSaiyan)",
      "license": "CC-BY-4.0 (http://creativecommons.org/licenses/by/4.0/)",
      "source": "https://sketchfab.com/3d-models/stark-scientist-99923155156741a799047fdf9bdd54fe",
      "title": "Stark Scientist"
    },
    "generator": "Sketchfab-15.35.0",
    "version": "2.0"
  },
  "bufferViews": [
    {
      "buffer": 0,
      "byteLength": 25008,
      "name": "floatBufferViews",
      "target": 34963
    },
    {
      "buffer": 0,
      "byteLength": 26552,
      "byteOffset": 25008,
      "byteStride": 8,
      "name": "floatBufferViews",
      "target": 34962
    },
    {
      "buffer": 0,
      "byteLength": 79656,
      "byteOffset": 51560,
      "byteStride": 12,
      "name": "floatBufferViews",
      "target": 34962
    }
  ],
  "buffers": [
    {
      "byteLength": 131216,
      "uri": "scene.bin"
    }
  ],
  "images": [
    {
      "uri": "textures/mat_0_baseColor.png"
    },
    {
      "uri": "textures/mat_1_baseColor.png"
    },
    {
      "uri": "textures/mat_2_baseColor.png"
    },
    {
      "uri": "textures/mat_3_baseColor.png"
    },
    {
      "uri": "textures/mat_4_baseColor.png"
    },
    {
      "uri": "textures/mat_5_baseColor.png"
    },
    {
      "uri": "textures/mat_6_baseColor.png"
    },
    {
      "uri": "textures/mat_7_baseColor.png"
    }
  ],
  "materials": [
    {
      "doubleSided": true,
      "name": "mat_0",
      "pbrMetallicRoughness": {
        "baseColorTexture": {
          "index": 0
        },
        "metallicFactor": 0.0,
        "roughnessFactor": 0.8011823178082373
      }
    },
    {
      "doubleSided": true,
      "name": "mat_1",
      "pbrMetallicRoughness": {
        "baseColorTexture": {
          "index": 1
        },
        "metallicFactor": 0.0,
        "roughnessFactor": 0.8011823178082373
      }
    },
    {
      "doubleSided": true,
      "name": "mat_2",
      "pbrMetallicRoughness": {
        "baseColorTexture": {
          "index": 2
        },
        "metallicFactor": 0.0,
        "roughnessFactor": 0.8011823178082373
      }
    },
    {
      "doubleSided": true,
      "name": "mat_3",
      "pbrMetallicRoughness": {
        "baseColorTexture": {
          "index": 3
        },
        "metallicFactor": 0.0,
        "roughnessFactor": 0.8011823178082373
      }
    },
    {
      "doubleSided": true,
      "name": "mat_4",
      "pbrMetallicRoughness": {
        "baseColorTexture": {
          "index": 4
        },
        "metallicFactor": 0.0,
        "roughnessFactor": 0.8011823178082373
      }
    },
    {
      "doubleSided": true,
      "name": "mat_5",
      "pbrMetallicRoughness": {
        "baseColorTexture": {
          "index": 5
        },
        "metallicFactor": 0.0,
        "roughnessFactor": 0.8011823178082373
      }
    },
    {
      "doubleSided": true,
      "name": "mat_6",
      "pbrMetallicRoughness": {
        "baseColorTexture": {
          "index": 6
        },
        "metallicFactor": 0.0,
        "roughnessFactor": 0.8011823178082373
      }
    },
    {
      "doubleSided": true,
      "name": "mat_7",
      "pbrMetallicRoughness": {
        "baseColorTexture": {
          "index": 7
        },
        "metallicFactor": 0.0,
        "roughnessFactor": 0.8011823178082373
      }
    }
  ],
  "meshes": [
    {
      "name": "Object_0",
      "primitives": [
        {
          "attributes": {
            "NORMAL": 1,
            "POSITION": 0,
            "TEXCOORD_0": 2
          },
          "indices": 3,
          "material": 0,
          "mode": 4
        }
      ]
    },
    {
      "name": "Object_1",
      "primitives": [
        {
          "attributes": {
            "NORMAL": 5,
            "POSITION": 4,
            "TEXCOORD_0": 6
          },
          "indices": 7,
          "material": 1,
          "mode": 4
        }
      ]
    },
    {
      "name": "Object_2",
      "primitives": [
        {
          "attributes": {
            "NORMAL": 9,
            "POSITION": 8,
            "TEXCOORD_0": 10
          },
          "indices": 11,
          "material": 2,
          "mode": 4
        }
      ]
    },
    {
      "name": "Object_3",
      "primitives": [
        {
          "attributes": {
            "NORMAL": 13,
            "POSITION": 12,
            "TEXCOORD_0": 14
          },
          "indices": 15,
          "material": 3,
          "mode": 4
        }
      ]
    },
    {
      "name": "Object_4",
      "primitives": [
        {
          "attributes": {
            "NORMAL": 17,
            "POSITION": 16,
            "TEXCOORD_0": 18
          },
          "indices": 19,
          "material": 4,
          "mode": 4
        }
      ]
    },
    {
      "name": "Object_5",
      "primitives": [
        {
          "attributes": {
            "NORMAL": 21,
            "POSITION": 20,
            "TEXCOORD_0": 22
          },
          "indices": 23,
          "material": 5,
          "mode": 4
        }
      ]
    },
    {
      "name": "Object_6",
      "primitives": [
        {
          "attributes": {
            "NORMAL": 25,
            "POSITION": 24,
            "TEXCOORD_0": 26
          },
          "indices": 27,
          "material": 6,
          "mode": 4
        }
      ]
    },
    {
      "name": "Object_7",
      "primitives": [
        {
          "attributes": {
            "NORMAL": 29,
            "POSITION": 28,
            "TEXCOORD_0": 30
          },
          "indices": 31,
          "material": 7,
          "mode": 4
        }
      ]
    }
  ],
  "nodes": [
    {
      "children": [
        1
      ],
      "matrix": [
        1.0,
        0.0,
        0.0,
        0.0,
        0.0,
        2.220446049250313e-16,
        -1.0,
        0.0,
        0.0,
        1.0,
        2.220446049250313e-16,
        0.0,
        0.0,
        0.0,
        0.0,
        1.0
      ],
      "name": "Sketchfab_model"
    },
    {
      "children": [
        2,
        3,
        4,
        5,
        6,
        7,
        8,
        9
      ],
      "name": "Stark Scientist.obj.cleaner.materialmerger.gles"
    },
    {
      "mesh": 0,
      "name": "Object_2"
    },
    {
      "mesh": 1,
      "name": "Object_3"
    },
    {
      "mesh": 2,
      "name": "Object_4"
    },
    {
      "mesh": 3,
      "name": "Object_5"
    },
    {
      "mesh": 4,
      "name": "Object_6"
    },
    {
      "mesh": 5,
      "name": "Object_7"
    },
    {
      "mesh": 6,
      "name": "Object_8"
    },
    {
      "mesh": 7,
      "name": "Object_9"
    }
  ],
  "samplers": [
    {
      "magFilter": 9729,
      "minFilter": 9987,
      "wrapS": 10497,
      "wrapT": 10497
    }
  ],
  "scene": 0,
  "scenes": [
    {
      "name": "Sketchfab_Scene",
      "nodes": [
        0
      ]
    }
  ],
  "textures": [
    {
      "sampler": 0,
      "source": 0
    },
    {
      "sampler": 0,
      "source": 1
    },
    {
      "sampler": 0,
      "source": 2
    },
    {
      "sampler": 0,
      "source": 3
    },
    {
      "sampler": 0,
      "source": 4
    },
    {
      "sampler": 0,
      "source": 5
    },
    {
      "sampler": 0,
      "source": 6
    },
    {
      "sampler": 0,
      "source": 7
    }
  ]
}
