{
  "accessors": [
    {
      "bufferView": 2,
      "componentType": 5126,
      "count": 4345,
      "max": [
        4.450690269470215,
        4.2882843017578125,
        1.9077503681182861
      ],
      "min": [
        -4.281010627746582,
        0.0,
        -2.3271713256835938
      ],
      "type": "VEC3"
    },
    {
      "bufferView": 2,
      "byteOffset": 52140,
      "componentType": 5126,
      "count": 4345,
      "max": [
        0.9942421913146973,
        0.9999994039535522,
        0.9994833469390869
      ],
      "min": [
        -0.9960803985595703,
        -0.9998969435691833,
        -0.9996727705001831
      ],
      "type": "VEC3"
    },
    {
      "bufferView": 3,
      "componentType": 5126,
      "count": 4345,
      "max": [
        0.9999864101409912,
        0.9996922612190247,
        0.999924898147583,
        1.0
      ],
      "min": [
        -0.9999927282333374,
        -0.9771407842636108,
        -0.9997284412384033,
        -1.0
      ],
      "type": "VEC4"
    },
    {
      "bufferView": 1,
      "componentType": 5126,
      "count": 4345,
      "max": [
        0.9890121817588806,
        0.9904975295066833
      ],
      "min": [
        0.010555089451372623,
        0.006587982177734375
      ],
      "type": "VEC2"
    },
    {
      "bufferView": 1,
      "byteOffset": 34760,
      "componentType": 5126,
      "count": 4345,
      "max": [
        0.9890121817588806,
        0.9904975295066833
      ],
      "min": [
        0.010555089451372623,
        0.006587982177734375
      ],
      "type": "VEC2"
    },
    {
      "bufferView": 1,
      "byteOffset": 69520,
      "componentType": 5126,
      "count": 4345,
      "max": [
        0.9890121817588806,
        0.9904975295066833
      ],
      "min": [
        0.010555089451372623,
        0.006587982177734375
      ],
      "type": "VEC2"
    },
    {
      "bufferView": 1,
      "byteOffset": 104280,
      "componentType": 5126,
      "count": 4345,
      "max": [
        0.9890121817588806,
        0.9904975295066833
      ],
      "min": [
        0.010555089451372623,
        0.006587982177734375
      ],
      "type": "VEC2"
    },
    {
      "bufferView": 1,
      "byteOffset": 139040,
      "componentType": 5126,
      "count": 4345,
      "max": [
        0.9890121817588806,
        0.9904975295066833
      ],
      "min": [
        0.010555089451372623,
        0.006587982177734375
      ],
      "type": "VEC2"
    },
    {
      "bufferView": 0,
      "componentType": 5125,
      "count": 23547,
      "type": "SCALAR"
    }
  ],
  "asset": {
    "extras": {
      "author": "TheRealNinjaMinion2000 (https://sketchfab.com/kmorganc1)",
      "license": "CC-BY-4.0 (http://creativecommons.org/licenses/by/4.0/)",
      "source": "https://sketchfab.com/3d-models/lips-and-smile-mouth-006a75bb37fc415a9a8c409a2470d319",
      "title": "Lips And Smile Mouth"
    },
    "generator": "Sketchfab-15.24.0",
    "version": "2.0"
  },
  "bufferViews": [
    {
      "buffer": 0,
      "byteLength": 94188,
      "name": "floatBufferViews",
      "target": 34963
    },
    {
      "buffer": 0,
      "byteLength": 173800,
      "byteOffset": 94188,
      "byteStride": 8,
      "name": "floatBufferViews",
      "target": 34962
    },
    {
      "buffer": 0,
      "byteLength": 104280,
      "byteOffset": 267988,
      "byteStride": 12,
      "name": "floatBufferViews",
      "target": 34962
    },
    {
      "buffer": 0,
      "byteLength": 69520,
      "byteOffset": 372268,
      "byteStride": 16,
      "name": "floatBufferViews",
      "target": 34962
    }
  ],
  "buffers": [
    {
      "byteLength": 441788,
      "uri": "scene.bin"
    }
  ],
  "extensionsRequired": [
    "KHR_materials_pbrSpecularGlossiness"
  ],
  "extensionsUsed": [
    "KHR_materials_pbrSpecularGlossiness"
  ],
  "images": [
    {
      "uri": "textures/material_0_diffuse.png"
    },
    {
      "uri": "textures/material_0_specularGlossiness.png"
    },
    {
      "uri": "textures/material_0_normal.png"
    },
    {
      "uri": "textures/material_0_occlusion.png"
    }
  ],
  "materials": [
    {
      "doubleSided": true,
      "extensions": {
        "KHR_materials_pbrSpecularGlossiness": {
          "diffuseFactor": [
            1.0,
            1.0,
            1.0,
            1.0
          ],
          "diffuseTexture": {
            "index": 0
          },
          "glossinessFactor": 1.0,
          "specularFactor": [
            1.0,
            1.0,
            1.0
          ],
          "specularGlossinessTexture": {
            "index": 1
          }
        }
      },
      "name": "material_0",
      "normalTexture": {
        "index": 2
      },
      "occlusionTexture": {
        "index": 3
      }
    }
  ],
  "meshes": [
    {
      "name": "Object_0",
      "primitives": [
        {
          "attributes": {
            "NORMAL": 1,
            "POSITION": 0,
            "TANGENT": 2,
            "TEXCOORD_0": 3,
            "TEXCOORD_1": 4,
            "TEXCOORD_2": 5,
            "TEXCOORD_3": 6,
            "TEXCOORD_4": 7
          },
          "indices": 8,
          "material": 0,
          "mode": 4
        }
      ]
    }
  ],
  "nodes": [
    {
      "children": [
        1
      ],
      "matrix": [
        1.0,
        0.0,
        0.0,
        0.0,
        0.0,
        2.220446049250313e-16,
        -1.0,
        0.0,
        0.0,
        1.0,
        2.220446049250313e-16,
        0.0,
        0.0,
        0.0,
        0.0,
        1.0
      ],
      "name": "Sketchfab_model"
    },
    {
      "children": [
        2
      ],
      "name": "root"
    },
    {
      "children": [
        3
      ],
      "matrix": [
        1.0,
        0.0,
        0.0,
        0.0,
        0.0,
        2.220446049250313e-16,
        1.0,
        0.0,
        0.0,
        -1.0,
        2.220446049250313e-16,
        0.0,
        0.0,
        0.0,
        0.0,
        1.0
      ],
      "name": "GLTF_SceneRootNode"
    },
    {
      "children": [
        4
      ],
      "matrix": [
        0.009999999776482582,
        0.0,
        0.0,
        0.0,
        0.0,
        0.009999999776482582,
        0.0,
        0.0,
        0.0,
        0.0,
        0.009999999776482582,
        0.0,
        0.0,
        0.0,
        0.0,
        1.0
      ],
      "name": "RootNode.0_0"
    },
    {
      "children": [
        5
      ],
      "name": "mouth_3_woman.1_1"
    },
    {
      "mesh": 0,
      "name": "Object_5"
    }
  ],
  "samplers": [
    {
      "magFilter": 9729,
      "minFilter": 9987,
      "wrapS": 10497,
      "wrapT": 10497
    }
  ],
  "scene": 0,
  "scenes": [
    {
      "name": "Sketchfab_Scene",
      "nodes": [
        0
      ]
    }
  ],
  "textures": [
    {
      "sampler": 0,
      "source": 0
    },
    {
      "sampler": 0,
      "source": 1
    },
    {
      "sampler": 0,
      "source": 2
    },
    {
      "sampler": 0,
      "source": 3
    }
  ]
}
